<?xml version="1.0" standalone="no"?>
<!DOCTYPE svg PUBLIC "-//W3C//DTD SVG 20010904//EN"
 "http://www.w3.org/TR/2001/REC-SVG-20010904/DTD/svg10.dtd">
<svg version="1.0" xmlns="http://www.w3.org/2000/svg"
 width="2467.000000pt" height="2467.000000pt" viewBox="0 0 2467.000000 2467.000000"
 preserveAspectRatio="xMidYMid meet">
<metadata>
Created by potrace 1.11, written by Peter Selinger 2001-2013
</metadata>
<g transform="translate(0.000000,2467.000000) scale(0.100000,-0.100000)"
fill="#000000" stroke="none">
<path d="M13135 22635 c-34 -15 -119 -100 -195 -195 -74 -93 -210 -230 -229
-230 -22 0 -127 -101 -186 -177 -30 -40 -57 -64 -74 -68 -18 -4 -38 -24 -66
-68 -22 -34 -86 -117 -141 -183 -77 -92 -114 -148 -154 -227 -28 -58 -53 -112
-54 -119 -2 -7 -8 -26 -14 -41 -7 -16 -12 -30 -12 -32 0 -3 -50 -115 -98 -219
l-18 -39 -16 32 c-13 29 -14 37 -1 74 8 23 16 49 18 57 2 8 39 88 83 178 74
150 78 162 58 162 -53 0 -115 -99 -186 -298 l-26 -73 -29 58 c-87 177 -143
345 -147 440 -1 43 -24 66 -39 41 -10 -16 -3 -205 9 -243 16 -49 72 -199 83
-217 5 -10 9 -22 9 -27 0 -5 18 -37 40 -70 22 -33 40 -68 40 -78 0 -10 -8 -47
-18 -83 -16 -55 -22 -64 -43 -66 -13 0 -44 -4 -69 -9 -25 -4 -54 -9 -65 -11
-113 -19 -144 -24 -170 -29 -100 -18 -90 -21 -115 42 -13 32 -27 63 -31 68
-17 23 -57 190 -60 254 -3 39 -20 58 -40 45 -5 -3 -7 -55 -5 -117 4 -101 8
-122 44 -217 22 -58 37 -106 34 -107 -4 0 -43 -9 -87 -18 -351 -76 -640 -162
-910 -272 -165 -67 -235 -102 -450 -227 -55 -32 -147 -83 -205 -114 -103 -54
-284 -157 -305 -173 -5 -5 -50 -39 -100 -76 -49 -37 -95 -72 -101 -78 -6 -5
-32 -28 -59 -50 -26 -22 -60 -51 -75 -65 -128 -116 -184 -165 -191 -168 -5 -2
-39 22 -76 53 -232 194 -365 283 -528 350 -161 67 -285 89 -490 88 -368 -2
-670 -45 -715 -102 -3 -4 -66 -56 -140 -116 -145 -117 -295 -263 -361 -350
-22 -30 -73 -80 -112 -112 -267 -215 -458 -464 -526 -687 -27 -87 -30 -104
-37 -201 -8 -99 2 -160 72 -482 122 -560 223 -766 464 -940 71 -52 200 -123
272 -152 66 -26 64 -18 29 -142 -20 -71 -65 -287 -75 -359 -2 -19 -8 -57 -12
-85 -3 -27 -8 -59 -10 -70 -25 -130 -24 -1230 1 -1475 1 -19 6 -67 9 -106 3
-39 8 -86 10 -105 7 -52 19 -133 21 -144 2 -5 8 -37 15 -70 22 -110 49 -176
168 -414 269 -535 365 -682 623 -955 48 -50 108 -118 135 -151 26 -33 62 -76
78 -96 17 -19 40 -46 51 -60 11 -13 60 -72 110 -129 123 -144 137 -160 160
-186 11 -12 52 -57 90 -100 128 -144 388 -408 519 -527 48 -43 54 -67 17 -67
-52 0 -196 -120 -445 -370 -106 -107 -256 -256 -332 -331 -76 -74 -177 -177
-224 -229 -47 -51 -92 -100 -101 -109 -14 -14 -135 -153 -166 -191 -7 -8 -53
-64 -103 -125 -131 -158 -323 -413 -402 -535 -94 -144 -130 -221 -253 -542
-116 -300 -298 -860 -331 -1014 -1 -6 -9 -36 -17 -65 -9 -30 -18 -71 -21 -93
-4 -21 -8 -42 -11 -46 -3 -4 -8 -28 -11 -51 -3 -24 -8 -55 -10 -69 -2 -14 -6
-52 -9 -85 -3 -33 -7 -79 -10 -103 -3 -23 -7 -63 -10 -90 -3 -26 -8 -63 -11
-82 -3 -19 -7 -55 -10 -80 -2 -25 -7 -61 -10 -80 -4 -29 -23 -173 -39 -295 -2
-16 -7 -52 -11 -80 -7 -49 -10 -72 -13 -99 -1 -11 -10 -11 -58 0 -119 28 -280
41 -458 38 -465 -9 -695 -17 -820 -29 -33 -4 -80 -8 -105 -11 -173 -17 -327
-48 -480 -96 -297 -93 -678 -363 -872 -619 -30 -39 -83 -92 -123 -122 -163
-121 -363 -354 -428 -499 -9 -21 -24 -53 -31 -70 -8 -18 -22 -57 -31 -87 -17
-61 -49 -132 -77 -174 -11 -15 -17 -27 -14 -27 4 0 -4 -17 -17 -37 -30 -49
-156 -305 -197 -403 -77 -180 -136 -381 -156 -525 -3 -22 -8 -51 -11 -65 -9
-44 -11 -444 -2 -505 54 -378 140 -618 326 -913 115 -182 211 -295 518 -610
541 -556 724 -719 975 -871 142 -87 435 -221 482 -221 8 0 18 -4 24 -9 9 -9
309 -85 374 -95 19 -3 45 -8 56 -10 26 -5 72 -12 139 -21 28 -4 61 -9 75 -11
144 -25 509 -24 715 2 43 5 299 56 346 68 197 52 496 156 664 231 17 7 64 28
105 46 41 17 113 49 158 70 46 22 86 39 88 39 16 0 405 202 476 247 21 12 40
23 42 23 3 0 35 19 73 42 171 107 360 238 618 433 154 116 307 229 340 252
102 69 210 118 285 129 19 3 51 9 70 14 19 5 58 11 85 15 28 3 57 8 65 10 8 2
42 6 75 10 33 3 74 8 90 10 107 14 171 18 340 20 171 2 238 -2 372 -20 47 -6
196 -45 383 -100 106 -31 177 -51 250 -69 8 -2 33 -9 55 -14 56 -15 231 -50
285 -57 25 -3 52 -8 60 -10 38 -10 190 -19 340 -19 140 -1 213 3 390 19 51 4
226 26 330 41 19 3 53 7 75 9 22 3 51 7 65 10 14 3 39 7 55 9 82 13 231 40
305 55 25 5 83 16 130 26 47 9 153 32 236 51 153 34 242 45 369 46 79 1 279
-10 312 -16 12 -3 50 -7 85 -11 35 -3 70 -8 78 -10 8 -2 31 -6 50 -9 30 -4
144 -26 215 -41 182 -38 438 -129 600 -211 66 -34 203 -103 305 -155 168 -86
274 -137 400 -192 25 -11 63 -27 85 -37 55 -25 344 -141 375 -150 146 -47 336
-137 515 -245 114 -69 276 -176 300 -198 25 -23 191 -137 200 -137 4 0 19 -9
35 -20 74 -52 370 -194 550 -263 218 -83 502 -140 660 -131 426 23 966 210
1491 515 355 207 510 333 891 725 43 43 144 143 225 221 82 78 180 180 220
225 39 46 83 97 98 113 94 108 249 327 309 435 72 133 210 468 282 690 57 172
113 405 129 530 3 25 7 63 10 85 7 53 7 455 0 525 -16 166 -27 245 -50 350 -9
41 -18 82 -20 91 -15 70 -86 255 -136 354 -79 159 -171 286 -299 415 -313 317
-708 533 -1140 625 -117 25 -165 30 -315 30 -155 0 -221 -8 -414 -49 -121 -26
-312 -87 -427 -136 l-43 -19 7 197 c8 259 7 934 -2 1137 -11 269 -21 390 -47
600 -16 130 -40 255 -64 337 -14 48 -117 316 -160 418 -13 30 -71 174 -130
320 -59 146 -113 279 -120 295 -7 17 -31 77 -55 135 -23 58 -47 119 -55 135
-7 17 -30 73 -51 125 -64 161 -176 368 -307 565 -169 253 -320 416 -525 564
-64 46 -180 134 -257 196 -143 114 -290 225 -299 225 -3 0 -25 13 -49 30 -58
39 -245 134 -374 189 -100 43 -102 45 -80 60 12 8 27 20 32 27 6 6 60 56 120
111 112 103 827 812 900 893 78 87 161 185 190 225 16 22 32 42 35 45 12 10
129 178 203 290 266 407 449 824 523 1195 2 11 6 31 9 45 2 14 7 41 10 60 5
32 18 109 30 177 6 38 26 187 31 243 3 25 7 56 9 70 28 154 22 569 -10 805 -3
17 -7 55 -11 85 -4 30 -14 101 -24 157 l-17 103 23 15 c13 8 26 15 29 15 19 0
169 114 225 170 87 89 113 121 151 188 18 31 36 58 41 60 4 2 43 26 85 54 261
171 403 416 458 793 20 139 16 366 -9 518 -58 346 -153 648 -250 790 -14 21
-26 42 -26 47 0 4 -3 10 -7 12 -5 2 -23 21 -42 43 -251 296 -434 488 -540 569
-49 37 -176 116 -186 116 -2 0 -26 13 -52 28 -95 56 -175 76 -318 78 -196 2
-333 -20 -508 -83 -184 -66 -384 -188 -575 -350 l-49 -42 -54 46 c-30 25 -94
76 -144 112 -97 72 -158 110 -310 195 -54 31 -69 46 -105 111 -111 203 -326
362 -577 427 -40 10 -96 32 -123 48 -121 71 -493 263 -635 327 -123 55 -272
112 -377 143 -103 31 -118 34 -213 45 -60 7 -340 44 -375 51 -136 23 -636 23
-870 -1 -19 -2 -73 -6 -120 -10 -47 -4 -96 -8 -110 -10 -22 -4 -67 -9 -265
-30 -27 -3 -67 -8 -87 -11 -21 -3 -38 -1 -38 3 0 4 16 24 35 43 19 19 35 37
35 41 0 6 143 137 196 179 90 72 177 118 467 246 157 69 177 81 177 102 0 18
-4 22 -17 18 -10 -3 -45 -6 -78 -7 -80 -2 -204 -54 -313 -131 -87 -61 -98 -61
-29 1 22 20 62 56 89 81 27 25 54 50 61 56 8 7 33 12 57 12 51 1 70 20 40 41
-19 13 -18 15 27 47 55 39 219 120 444 219 143 63 156 71 149 90 -5 11 -12 19
-17 18 -4 0 -40 -4 -80 -7 -130 -11 -243 -71 -502 -269 -85 -65 -115 -83 -170
-97 -79 -21 -202 -69 -271 -107 -80 -44 -87 -48 -106 -63 -16 -13 -17 -13 -9
0 28 50 85 104 150 144 42 25 110 74 153 109 109 89 218 157 362 226 131 62
186 78 260 76 40 -1 59 7 60 26 0 12 -52 29 -86 29 -83 0 -284 -77 -419 -159
-107 -66 -217 -148 -300 -225 -33 -31 -66 -56 -74 -56 -17 0 8 30 82 99 30 28
47 53 47 68 0 13 -4 23 -9 23 -18 0 -60 -19 -81 -37 -29 -24 -102 -120 -120
-158 -32 -66 -73 -115 -137 -166 -38 -30 -70 -56 -73 -60 -3 -3 -22 -9 -42
-13 -21 -4 -38 -10 -38 -14 0 -4 -14 -16 -31 -26 -18 -11 -30 -15 -27 -10 22
36 149 310 154 331 23 90 126 265 208 354 33 35 116 132 187 214 70 83 163
187 206 232 60 64 76 86 68 97 -9 12 -16 12 -40 1z m-615 -722 c-32 -63 -54
-114 -65 -153 -4 -14 -33 -83 -65 -155 -32 -71 -83 -196 -115 -278 -56 -143
-82 -190 -72 -131 7 37 27 110 72 259 20 66 37 125 39 130 20 84 96 223 170
313 33 39 62 72 63 72 1 0 -11 -26 -27 -57z m-267 -320 c-16 -50 -40 -135 -71
-250 -39 -143 -90 -268 -123 -308 -70 -80 -76 -85 -101 -76 -13 4 -24 15 -26
23 -2 9 25 71 58 139 34 68 75 160 90 205 36 98 159 313 182 314 3 0 -1 -21
-9 -47z m732 15 c-16 -12 -122 -115 -235 -228 -247 -247 -323 -319 -314 -297
3 9 10 17 15 17 5 0 9 5 9 11 0 6 9 24 21 40 12 17 47 82 79 145 56 113 59
117 131 166 61 42 302 168 319 168 3 -1 -8 -10 -25 -22z m-440 -178 c-10 -11
-23 -20 -28 -20 -6 0 0 9 13 20 13 11 25 20 28 20 3 0 -3 -9 -13 -20z m-26
-106 c-28 -34 -129 -230 -129 -251 0 -7 8 -13 17 -13 14 0 11 -6 -12 -30 -23
-22 -42 -30 -77 -33 -26 -3 -49 -3 -51 0 -7 7 25 83 69 163 37 65 86 119 111
120 4 0 24 14 43 30 39 33 49 38 29 14z m-247 -199 c-4 -26 -22 -45 -22 -25 0
12 18 50 24 50 2 0 1 -11 -2 -25z m-418 -147 c9 -34 8 -35 -15 -41 -18 -5 -20
-2 -15 16 3 12 6 28 6 35 0 21 17 13 24 -10z m226 -8 c0 -5 -5 -10 -11 -10 -5
0 -7 5 -4 10 3 6 8 10 11 10 2 0 4 -4 4 -10z"/>
</g>
</svg>
